{"title":"Extant.S02E08.HDTV.480p.x264.AAC-VYTO [P2PDL]","uid":12224849,"size":152768986,"categoryP":"video","categoryS":"hd___tv_shows","magnet":"?xt=urn:btih:f26d2a004095dbd29ecee7772f9534ce1b870327&amp;dn=Extant.S02E08.HDTV.480p.x264.AAC-VYTO+%5BP2PDL%5D&amp;tr=udp%3A%2F%2Ftracker.openbittorrent.com%3A80&amp;tr=udp%3A%2F%2Fopen.demonii.com%3A1337&amp;tr=udp%3A%2F%2Ftracker.coppersurfer.tk%3A6969&amp;tr=udp%3A%2F%2Fexodus.desync.com%3A6969","seeders":4,"leechers":0,"uploader":"ValidusVyto","files":6,"time":1439446941,"description":"____    ____ ____    ____ .___________.  ______   \n     /   /      /   / |           | /  __    \n    /   /      /   /  `---|  |----`|  |  |  | \n        /     _    _/       |  |     |  |  |  | \n       /        |  |         |  |     |  `--'  | \n    __/         |__|         |__|      ______/  \n                                                  \nPresenting Small Encodes with quality for years!\n                                                                                                   \n                                                                                                   \n\nExtant.S02E08.HDTV.480p.x264.AAC-VYTO\n\n\nGeneral\nFormat                         : MPEG-4\nFile size                      : 141 MiB\nDuration                       : 42mn 44s\nOverall bit rate               : 462 Kbps\n\nVideo\nFormat                         : AVC\nDuration                       : 42mn 43s\nBit rate                       : 427 Kbps\nWidth                          : 720 pixels\nHeight                         : 400 pixels\nDisplay aspect ratio           : 16:9\nFrame rate mode                : Constant\nFrame rate                     : 23.976 fps\nBit depth                      : 8 bits\nStream size                    : 131 MiB (92%)\nWriting library                : x264 core 148 r2579\n\nAudio\nFormat                         : AAC\nBit rate mode                  : Variable\nBit rate                       : 32.0 Kbps\nChannel(s)                     : 2 channels\nChannel positions              : Front: L R\nSampling rate                  : 48.0 KHz\nStream size                    : 9.78 MiB (7%)\n\nScreenshots:\n &lt;a href=&quot;\nhttp://ititli.com/Hl&quot; rel=&quot;nofollow&quot; target=&quot;_NEW&quot;&gt;\nhttp://ititli.com/Hl&lt;/a&gt; &lt;a href=&quot;\nhttp://ititli.com/Hm&quot; rel=&quot;nofollow&quot; target=&quot;_NEW&quot;&gt;\nhttp://ititli.com/Hm&lt;/a&gt; &lt;a href=&quot;\nhttp://ititli.com/Hx&quot; rel=&quot;nofollow&quot; target=&quot;_NEW&quot;&gt;\nhttp://ititli.com/Hx&lt;/a&gt; &lt;a href=&quot;\nhttp://ititli.com/H7&quot; rel=&quot;nofollow&quot; target=&quot;_NEW&quot;&gt;\nhttp://ititli.com/H7&lt;/a&gt; &lt;a href=&quot;\nhttp://ititli.com/HC&quot; rel=&quot;nofollow&quot; target=&quot;_NEW&quot;&gt;\nhttp://ititli.com/HC&lt;/a&gt; &lt;a href=&quot;\nhttp://ititli.com/HF&quot; rel=&quot;nofollow&quot; target=&quot;_NEW&quot;&gt;\nhttp://ititli.com/HF&lt;/a&gt; &lt;a href=&quot;\nhttp://ititli.com/HJ&quot; rel=&quot;nofollow&quot; target=&quot;_NEW&quot;&gt;\nhttp://ititli.com/HJ&lt;/a&gt; &lt;a href=&quot;\nhttp://ititli.com/H5&quot; rel=&quot;nofollow&quot; target=&quot;_NEW&quot;&gt;\nhttp://ititli.com/H5&lt;/a&gt; &lt;a href=&quot;\nhttp://ititli.com/HB&quot; rel=&quot;nofollow&quot; target=&quot;_NEW&quot;&gt;\nhttp://ititli.com/HB&lt;/a&gt; &lt;a href=&quot;\nhttp://ititli.com/HN&quot; rel=&quot;nofollow&quot; target=&quot;_NEW&quot;&gt;\nhttp://ititli.com/HN&lt;/a&gt; &lt;a href=&quot;\nhttp://ititli.com/HP&quot; rel=&quot;nofollow&quot; target=&quot;_NEW&quot;&gt;\nhttp://ititli.com/HP&lt;/a&gt; &lt;a href=&quot;\nhttp://ititli.com/Hf&quot; rel=&quot;nofollow&quot; target=&quot;_NEW&quot;&gt;\nhttp://ititli.com/Hf&lt;/a&gt;\n\n----------------------------------------------------------------------------------------------------\n\n\nEncoder Notes: Looking For Early Access To Anything You Can Provide DVDScr, R5, DVDR, BluRay, Direct\nAudio, Music Releases and Seedboxes. If You Got anything to offer please contact us.\n\nSupport us by donating BC - 1FgwdzPsd1y25Gea8wP1qni35uGCtmkRCD","torrent":{"xt":"urn:btih:f26d2a004095dbd29ecee7772f9534ce1b870327","amp;dn":"Extant.S02E08.HDTV.480p.x264.AAC-VYTO+%5BP2PDL%5D","amp;tr":["udp%3A%2F%2Ftracker.openbittorrent.com%3A80","udp%3A%2F%2Fopen.demonii.com%3A1337","udp%3A%2F%2Ftracker.coppersurfer.tk%3A6969","udp%3A%2F%2Fexodus.desync.com%3A6969"],"infoHash":"f26d2a004095dbd29ecee7772f9534ce1b870327","infoHashBuffer":{"type":"Buffer","data":[242,109,42,0,64,149,219,210,158,206,231,119,47,149,52,206,27,135,3,39]},"announce":[],"urlList":[]}}